<svg xmlns="http://www.w3.org/2000/svg"><symbol id="life-saver" viewBox="0 0 93.6 93.6"><path fill="red" d="M92.8 46.8H70a22.9 22.9 0 0 0-6.8-16.3l16.1-16.2a45.9 45.9 0 0 1 13.5 32.5z"/><path fill="#e6e6e6" d="M70 46.7h22.8a45.9 45.9 0 0 1-13.5 32.6L63.2 63.2A23.1 23.1 0 0 0 70 46.8zm9.3-32.4L63.2 30.4a23.1 23.1 0 0 0-16.4-6.8V.8a45.9 45.9 0 0 1 32.5 13.5z"/><path fill="red" d="M46.8.8v22.8a23.1 23.1 0 0 0-16.4 6.8L14.3 14.3A45.9 45.9 0 0 1 46.8.8zm0 69.2a23.1 23.1 0 0 0 16.4-6.8l16.1 16.1a45.9 45.9 0 0 1-32.5 13.5h-.7V70h.7z"/><path fill="#e6e6e6" d="M46.1 70v22.7a45.3 45.3 0 0 1-31.8-13.4l16.1-16.1A23.4 23.4 0 0 0 46.1 70z"/><path fill="red" d="M30.4 63.2L14.3 79.3A45.9 45.9 0 0 1 .8 46.8h22.8a23.1 23.1 0 0 0 6.8 16.4z"/><path fill="#e6e6e6" d="M14.3 14.3l16.1 16.1a23.1 23.1 0 0 0-6.8 16.4H.8a45.9 45.9 0 0 1 13.5-32.5z"/></symbol><symbol id="heart" viewBox="0 0 93.6 93.6"><path fill="#ed1c24" d="M46.6 92.8C26 79.3 6.2 52.5 2.4 35.9-7.4.7 32.4-10.2 46.9 16.3c12.2-26.5 53-18.2 44.8 19.6-4.4 19.9-31.3 51.7-45.1 56.9z"/></symbol><symbol id="stethiscope" viewBox="0 0 93.6 93.6"><ellipse cx="74.6" cy="54.7" fill="#e6e6e5" rx="16.7" ry="13.7"/><path fill="none" stroke="#b2b3b3" stroke-miterlimit="10" stroke-width="4" d="M47.9 5.4A27.9 27.9 0 0 0 38 3.1c-8.2 1.5-17.6 12.8-17.6 12.8m42.2-2.1c4.4 2.2 8.1 7.3 8.1 7.3-1.8 9.8-14.8 18.2-14.8 18.2"/><ellipse cx="52.1" cy="7.7" fill="red" rx="2" ry="3.3" transform="rotate(-68.7 52.067 7.678)"/><ellipse cx="58.6" cy="11.3" fill="red" rx="2" ry="3.2" transform="rotate(-69.4 58.614 11.315)"/><ellipse cx="75.6" cy="52.5" fill="#989898" stroke="red" stroke-miterlimit="10" stroke-width="2" rx="7.3" ry="6"/><path fill="#b2b3b3" d="M74.2 66l-5.5-1a2.2 2.2 0 0 1-2-2.5 2.7 2.7 0 0 1 3.1-1.6l5.5 1c1.4.3 2.3 1.4 2 2.5a2.6 2.6 0 0 1-3.1 1.6z"/><path fill="none" stroke="red" stroke-linecap="round" stroke-miterlimit="10" stroke-width="10" d="M17.2 21.6c-23.8 21.3-1.5 43 33.7 21.5"/><path fill="none" stroke="red" stroke-miterlimit="10" stroke-width="10" d="M13.1 51.3C-5.4 82.5 32 87.1 32 87.1c20.1 2.8 34-8.1 36.6-17.6"/></symbol><symbol id="lion-logo" viewBox="0 0 93.6 93.6"><path fill="#42210b" d="M91.3 44.9v.2a5.8 5.8 0 0 0-4.9 5.2h-.1a5.3 5.3 0 0 0-3.4-3.9s-5-2.1-3.6-5.9 8.7-.9 11.7 1.2c.1.1.1.3.2.4 0 .5.1 1.6.1 2.8z"/><path fill="#c69c6d" d="M91.3 45.1a15.1 15.1 0 0 1-3.1 6.4.8.8 0 0 1-.2.4s-.2-1.9-1.6-1.6a5.8 5.8 0 0 1 4.9-5.2z"/><path d="M86.3 50.3h.1v.6a2.1 2.1 0 0 0-.1-.6z"/><path d="M83.8 57.1s-5.5 3.7-19.3 1.9c6.9.8 15.8-3.3 15.8-3.3 2.7-1.4 3-2.9 4.3-4.3l.3-.3a3.4 3.4 0 0 1 1.4-.8 2.1 2.1 0 0 1 .1.6v-.6c1.4-.3 1.6 1.6 1.6 1.6a13.6 13.6 0 0 0-1.6 6.1l-.2.6h-.1s-.5-2.6-2.3-1.5z"/><path fill="#c69c6d" d="M64.5 59c13.8 1.8 19.3-1.9 19.3-1.9 1.8-1.1 2.3 1.5 2.3 1.5h.1l-.8 1.9c2 5.2-3 8.3-3 8.3-10.2 1.1-15.2-3.3-15.2-3.3S57.3 61 55.4 48c0 0-3.7-16 5.4-25.7 0 0 10.3-1.3 12.5 3.4a17.5 17.5 0 0 0 5.1 6.2 26.4 26.4 0 0 0 4.9 3.1c5 2.3 6.9 4.9 7.7 6.7-3-2.1-9.5-4.1-11.7-1.2s3.6 5.9 3.6 5.9a5.3 5.3 0 0 1 3.4 3.9 3.4 3.4 0 0 0-1.4.8l-.3.3c-1.3 1.4-1.6 2.9-4.3 4.3 0 0-8.9 4.1-15.8 3.3zM61 31.2c1.8 4.6 12.9 3.9 12.9 3.9-2.9-1.2-5.9-5.7-5.9-5.7-2.8-2.5-7 1.8-7 1.8z"/><path fill="#a67c52" d="M68.5 80.1c-.1.3-2.9 6.2-17.4 12.9 0 0 4.7-5.3 5.2-18.1a73.7 73.7 0 0 1-9.2 12.3 132.6 132.6 0 0 1 4-14s-6.7.4-13.3 17.1c0 0-4.1-12.2 1.7-20.8 0 0-15.7-2-19.1 14.8 0 0-3.6-12.7 7.8-21.2 0 0-14.1-2-22.1 15.4 0 0-1.6-9.6 10.2-22.8 0 0-.1-4.9-14.3.9 0 0-2.1-4.3 4.4-11.1 4.1-3.1 13-6.2 13.7-15.9s9.6-18 9.6-18 15.9-13 32.4-10.5c0 0 19.6 6.7 20 16.4 0 0 .4 11.8-3.7 14.4a17.5 17.5 0 0 1-5.1-6.2c-2.2-4.7-12.5-3.4-12.5-3.4C51.7 32 55.4 48 55.4 48c1.9 13 11.8 17.5 11.8 17.5s5 4.4 15.2 3.3c0 0 1.8 19.1-17.9 21.7 0 0 2.3-3.1 4-10.4zm-15.3-58c5.5-8.7-10.1-10.5-10.1-10.5-6.2 9.1 0 20.3 0 20.3 5.8-3.4 10.1-9.8 10.1-9.8z"/><path d="M73.9 35.1s-11.1.7-12.9-3.9c0 0 4.2-4.3 7-1.8 0 0 3 4.5 5.9 5.7z"/><path fill="#754c24" d="M53.2 22.1s-4.3 6.4-10.1 9.8c0 0-6.2-11.2 0-20.3 0 0 15.6 1.8 10.1 10.5zm-2.1 0s-.4-3.6-6-3.6a8.4 8.4 0 0 0 0 8.9s2-4.9 6-5.3z"/><path d="M45.1 18.5c5.6 0 6 3.6 6 3.6-4 .4-6 5.3-6 5.3a8.4 8.4 0 0 1 0-8.9z"/></symbol></svg>