<svg xmlns="http://www.w3.org/2000/svg"><symbol id="life-saver" viewBox="0 0 93.6 93.6"><path fill="red" d="M92.8 46.8H70a22.9 22.9 0 0 0-6.8-16.3l16.1-16.2a45.9 45.9 0 0 1 13.5 32.5z"/><path fill="#e6e6e6" d="M70 46.7h22.8a45.9 45.9 0 0 1-13.5 32.6L63.2 63.2A23.1 23.1 0 0 0 70 46.8zm9.3-32.4L63.2 30.4a23.1 23.1 0 0 0-16.4-6.8V.8a45.9 45.9 0 0 1 32.5 13.5z"/><path fill="red" d="M46.8.8v22.8a23.1 23.1 0 0 0-16.4 6.8L14.3 14.3A45.9 45.9 0 0 1 46.8.8zm0 69.2a23.1 23.1 0 0 0 16.4-6.8l16.1 16.1a45.9 45.9 0 0 1-32.5 13.5h-.7V70h.7z"/><path fill="#e6e6e6" d="M46.1 70v22.7a45.3 45.3 0 0 1-31.8-13.4l16.1-16.1A23.4 23.4 0 0 0 46.1 70z"/><path fill="red" d="M30.4 63.2L14.3 79.3A45.9 45.9 0 0 1 .8 46.8h22.8a23.1 23.1 0 0 0 6.8 16.4z"/><path fill="#e6e6e6" d="M14.3 14.3l16.1 16.1a23.1 23.1 0 0 0-6.8 16.4H.8a45.9 45.9 0 0 1 13.5-32.5z"/></symbol><symbol id="stethiscope" viewBox="0 0 93.6 93.6"><ellipse cx="74.6" cy="54.7" fill="#e6e6e5" rx="16.7" ry="13.7"/><path fill="none" stroke="#b2b3b3" stroke-miterlimit="10" stroke-width="4" d="M47.9 5.4A27.9 27.9 0 0 0 38 3.1c-8.2 1.5-17.6 12.8-17.6 12.8m42.2-2.1c4.4 2.2 8.1 7.3 8.1 7.3-1.8 9.8-14.8 18.2-14.8 18.2"/><ellipse cx="52.1" cy="7.7" fill="red" rx="2" ry="3.3" transform="rotate(-68.7 52.067 7.678)"/><ellipse cx="58.6" cy="11.3" fill="red" rx="2" ry="3.2" transform="rotate(-69.4 58.614 11.315)"/><ellipse cx="75.6" cy="52.5" fill="#989898" stroke="red" stroke-miterlimit="10" stroke-width="2" rx="7.3" ry="6"/><path fill="#b2b3b3" d="M74.2 66l-5.5-1a2.2 2.2 0 0 1-2-2.5 2.7 2.7 0 0 1 3.1-1.6l5.5 1c1.4.3 2.3 1.4 2 2.5a2.6 2.6 0 0 1-3.1 1.6z"/><path fill="none" stroke="red" stroke-linecap="round" stroke-miterlimit="10" stroke-width="10" d="M17.2 21.6c-23.8 21.3-1.5 43 33.7 21.5"/><path fill="none" stroke="red" stroke-miterlimit="10" stroke-width="10" d="M13.1 51.3C-5.4 82.5 32 87.1 32 87.1c20.1 2.8 34-8.1 36.6-17.6"/></symbol><symbol id="heart" viewBox="0 0 93.6 93.6"><path fill="#ed1c24" d="M46.6 92.8C26 79.3 6.2 52.5 2.4 35.9-7.4.7 32.4-10.2 46.9 16.3c12.2-26.5 53-18.2 44.8 19.6-4.4 19.9-31.3 51.7-45.1 56.9z"/></symbol></svg>