<svg xmlns="http://www.w3.org/2000/svg" width="1.3in" height="1.3in" viewBox="0 0 93.6 93.6"><path fill="red" d="M92.8 46.8H70a22.9 22.9 0 0 0-6.8-16.3l16.1-16.2a45.9 45.9 0 0 1 13.5 32.5z"/><path fill="#e6e6e6" d="M70 46.7h22.8a45.9 45.9 0 0 1-13.5 32.6L63.2 63.2A23.1 23.1 0 0 0 70 46.8zm9.3-32.4L63.2 30.4a23.1 23.1 0 0 0-16.4-6.8V.8a45.9 45.9 0 0 1 32.5 13.5z"/><path fill="red" d="M46.8.8v22.8a23.1 23.1 0 0 0-16.4 6.8L14.3 14.3A45.9 45.9 0 0 1 46.8.8zm0 69.2a23.1 23.1 0 0 0 16.4-6.8l16.1 16.1a45.9 45.9 0 0 1-32.5 13.5h-.7V70h.7z"/><path fill="#e6e6e6" d="M46.1 70v22.7a45.3 45.3 0 0 1-31.8-13.4l16.1-16.1A23.4 23.4 0 0 0 46.1 70z"/><path fill="red" d="M30.4 63.2L14.3 79.3A45.9 45.9 0 0 1 .8 46.8h22.8a23.1 23.1 0 0 0 6.8 16.4z"/><path fill="#e6e6e6" d="M14.3 14.3l16.1 16.1a23.1 23.1 0 0 0-6.8 16.4H.8a45.9 45.9 0 0 1 13.5-32.5z"/></svg>