<svg xmlns="http://www.w3.org/2000/svg" width="1.3in" height="1.3in" viewBox="0 0 93.6 93.6"><path fill="#42210b" d="M91.3 44.9v.2a5.8 5.8 0 0 0-4.9 5.2h-.1a5.3 5.3 0 0 0-3.4-3.9s-5-2.1-3.6-5.9 8.7-.9 11.7 1.2c.1.1.1.3.2.4 0 .5.1 1.6.1 2.8z"/><path fill="#c69c6d" d="M91.3 45.1a15.1 15.1 0 0 1-3.1 6.4.8.8 0 0 1-.2.4s-.2-1.9-1.6-1.6a5.8 5.8 0 0 1 4.9-5.2z"/><path d="M86.3 50.3h.1v.6a2.1 2.1 0 0 0-.1-.6z"/><path d="M83.8 57.1s-5.5 3.7-19.3 1.9c6.9.8 15.8-3.3 15.8-3.3 2.7-1.4 3-2.9 4.3-4.3l.3-.3a3.4 3.4 0 0 1 1.4-.8 2.1 2.1 0 0 1 .1.6v-.6c1.4-.3 1.6 1.6 1.6 1.6a13.6 13.6 0 0 0-1.6 6.1l-.2.6h-.1s-.5-2.6-2.3-1.5z"/><path fill="#c69c6d" d="M64.5 59c13.8 1.8 19.3-1.9 19.3-1.9 1.8-1.1 2.3 1.5 2.3 1.5h.1l-.8 1.9c2 5.2-3 8.3-3 8.3-10.2 1.1-15.2-3.3-15.2-3.3S57.3 61 55.4 48c0 0-3.7-16 5.4-25.7 0 0 10.3-1.3 12.5 3.4a17.5 17.5 0 0 0 5.1 6.2 26.4 26.4 0 0 0 4.9 3.1c5 2.3 6.9 4.9 7.7 6.7-3-2.1-9.5-4.1-11.7-1.2s3.6 5.9 3.6 5.9a5.3 5.3 0 0 1 3.4 3.9 3.4 3.4 0 0 0-1.4.8l-.3.3c-1.3 1.4-1.6 2.9-4.3 4.3 0 0-8.9 4.1-15.8 3.3zM61 31.2c1.8 4.6 12.9 3.9 12.9 3.9-2.9-1.2-5.9-5.7-5.9-5.7-2.8-2.5-7 1.8-7 1.8z"/><path fill="#a67c52" d="M68.5 80.1c-.1.3-2.9 6.2-17.4 12.9 0 0 4.7-5.3 5.2-18.1a73.7 73.7 0 0 1-9.2 12.3 132.6 132.6 0 0 1 4-14s-6.7.4-13.3 17.1c0 0-4.1-12.2 1.7-20.8 0 0-15.7-2-19.1 14.8 0 0-3.6-12.7 7.8-21.2 0 0-14.1-2-22.1 15.4 0 0-1.6-9.6 10.2-22.8 0 0-.1-4.9-14.3.9 0 0-2.1-4.3 4.4-11.1 4.1-3.1 13-6.2 13.7-15.9s9.6-18 9.6-18 15.9-13 32.4-10.5c0 0 19.6 6.7 20 16.4 0 0 .4 11.8-3.7 14.4a17.5 17.5 0 0 1-5.1-6.2c-2.2-4.7-12.5-3.4-12.5-3.4C51.7 32 55.4 48 55.4 48c1.9 13 11.8 17.5 11.8 17.5s5 4.4 15.2 3.3c0 0 1.8 19.1-17.9 21.7 0 0 2.3-3.1 4-10.4zm-15.3-58c5.5-8.7-10.1-10.5-10.1-10.5-6.2 9.1 0 20.3 0 20.3 5.8-3.4 10.1-9.8 10.1-9.8z"/><path d="M73.9 35.1s-11.1.7-12.9-3.9c0 0 4.2-4.3 7-1.8 0 0 3 4.5 5.9 5.7z"/><path fill="#754c24" d="M53.2 22.1s-4.3 6.4-10.1 9.8c0 0-6.2-11.2 0-20.3 0 0 15.6 1.8 10.1 10.5zm-2.1 0s-.4-3.6-6-3.6a8.4 8.4 0 0 0 0 8.9s2-4.9 6-5.3z"/><path d="M45.1 18.5c5.6 0 6 3.6 6 3.6-4 .4-6 5.3-6 5.3a8.4 8.4 0 0 1 0-8.9z"/></svg>