<svg id="Layer_1" data-name="Layer 1" xmlns="http://www.w3.org/2000/svg" width="2.2in" height="2.3in" viewBox="0 0 158.4 162"><title>lion-logo</title><path d="M147,101.1s-1.1-4.5-4.1-2.7c0,0-9.3,6.4-32.8,3.4,11.8,1.2,26.9-5.7,26.9-5.7,4.5-2.5,5.2-5,7.3-7.3h.1l.4-.4a6.8,6.8,0,0,1,2.4-1.5,3.5,3.5,0,0,1,.2,1v-1c2.4-.4,2.7,2.8,2.7,2.8a23.1,23.1,0,0,0-2.7,10.5l-.4,1Z"/><path d="M155.7,77.9c-.7.1-7.6,1.6-8.3,8.9h-.2a9.6,9.6,0,0,0-5.7-6.7s-8.6-3.6-6.3-10c3.9-4.9,15-1.6,20,2h0a3,3,0,0,1,.4.8c0,.8.2,2.6.2,4.7A.4.4,0,0,1,155.7,77.9Z" fill="#42210b"/><path d="M144.3,88.8c-2.1,2.3-2.8,4.8-7.3,7.3,0,0-15.1,6.9-26.9,5.7h0c23.5,3,32.8-3.4,32.8-3.4,3-1.8,4.1,2.7,4.1,2.7h0l-1.3,3.3c3.4,8.9-5.2,14.1-5.2,14.1-17.4,1.8-25.9-5.6-25.9-5.6s-17-7.8-20.4-30c0,0-6.3-27.4,9.3-44.1,0,0,17.8-2.2,21.5,5.9a30.4,30.4,0,0,0,8.6,10.6,48.6,48.6,0,0,0,8.4,5.4c8.6,3.8,11.9,8.3,13.2,11.4-5-3.6-16.1-6.9-20-2-2.3,6.4,6.3,10,6.3,10a9.6,9.6,0,0,1,5.7,6.7,6.8,6.8,0,0,0-2.4,1.5l-.4.4ZM103.9,54.1c3.1,7.9,22,6.7,22,6.7-4.9-2-10-9.8-10-9.8C111,46.8,103.9,54.1,103.9,54.1Z" fill="#c69c6d"/><path d="M147.4,87.8a3.5,3.5,0,0,0-.2-1h.2Z"/><path d="M155.7,77.9a25,25,0,0,1-5.2,10.9,3,3,0,0,1-.4.8s-.3-3.2-2.7-2.8C148.1,79.5,155,78,155.7,77.9Z" fill="#c69c6d"/><path d="M109.1,101.7h0Z" fill="#c69c6d"/><path d="M125.9,60.8s-18.9,1.2-22-6.7c0,0,7.1-7.3,12-3.1C115.9,51,121,58.8,125.9,60.8Z"/><path d="M116.8,137.8c-.3.6-5,10.7-29.8,22.2,0,0,8-9.2,8.8-31a125.2,125.2,0,0,1-15.7,21s1.2-6.5,6.9-24c0,0-11.4.7-22.9,29.4,0,0-6.9-21,3.1-35.7,0,0-27.1-3.5-32.9,25.4,0,0-6.1-21.8,13.4-36.3,0,0-24.1-3.5-37.8,26.3,0,0-2.7-16.3,17.5-39,0,0-.2-8.3-24.5,1.6,0,0-3.7-7.5,7.5-19.1C17.5,73.4,32.6,68,33.9,51.5c-.7-19.1,16.3-31,16.3-31S77.5-1.6,105.7,2.6c0,0,33.6,11.4,34.3,28,0,0,.7,20.2-6.3,24.7h-.1A30.4,30.4,0,0,1,125,44.7c-3.7-8.1-21.5-5.9-21.5-5.9-15.6,16.7-9.3,44.1-9.3,44.1,3.4,22.2,20.4,30,20.4,30s8.5,7.4,25.9,5.6c0,0,3,32.7-30.6,37.3C109.9,155.8,113.7,150.4,116.8,137.8ZM90.5,38.5c9.5-14.9-17.2-18-17.2-18-10.7,15.7,0,34.8,0,34.8C83.2,49.6,90.5,38.5,90.5,38.5Z" fill="#a67c52"/><path d="M73.3,20.5s26.7,3.1,17.2,18c0,0-7.3,11.1-17.2,16.8C73.3,55.3,62.6,36.2,73.3,20.5ZM87,38.5s-.7-6.1-10.3-6.1a14.4,14.4,0,0,0,0,15.3S80.1,39.3,87,38.5Z" fill="#754c24"/><path d="M76.7,32.4c9.6,0,10.3,6.1,10.3,6.1-6.9.8-10.3,9.2-10.3,9.2A14.4,14.4,0,0,1,76.7,32.4Z"/></svg>