<svg xmlns="http://www.w3.org/2000/svg"><symbol id="facebook-icon" viewBox="0 0 72 72"><path fill="#bd9c42" d="M5 4.8h61.9v61.9H5z"/><path fill="#fff" d="M33.2 31.9h-2.7v-4.3h2.7v-5a8.5 8.5 0 0 1 1.5-5.1 5.3 5.3 0 0 1 4.6-2 11.4 11.4 0 0 1 4.1.7v3.4h-2.6c-1.8 0-2.7.9-2.7 2.8v5.2h5.3v4.3h-5.3v26.6h-4.9z"/></symbol><symbol id="google-icon" viewBox="0 0 72 72"><path fill="#bd9c42" d="M5 4.8h61.9v61.9H5z"/><path fill="#fff" d="M33.2 31.9h-2.7v-4.3h2.7v-5a8.5 8.5 0 0 1 1.5-5.1 5.3 5.3 0 0 1 4.6-2 11.4 11.4 0 0 1 4.1.7v3.4h-2.6c-1.8 0-2.7.9-2.7 2.8v5.2h5.3v4.3h-5.3v26.6h-4.9z"/><path fill="#bd9c42" d="M5 4.4h61.9v61.9H5z"/><path fill="#fff" d="M34.8 56.7a9.2 9.2 0 0 1-1.3-5.1V31.5h-2.7v-4.3h2.7l1-8.6h3.8v8.6h4.2v4.3h-4.2v20.2c0 1.9.9 2.9 2.8 2.9h1.4v3.3l-1.7.6a5.5 5.5 0 0 1-1.8.2c-2 0-3.4-.6-4.2-2z"/><path fill="#bd9c42" d="M5 4.8h61.9v61.9H5z"/><path fill="#fff" d="M16.7 57.1a7.6 7.6 0 0 1-2-5.3 7.2 7.2 0 0 1 1.1-4.1 5.9 5.9 0 0 1 2.9-2.5 6.1 6.1 0 0 1-1.9-2 5.8 5.8 0 0 1-.6-2.6 4.9 4.9 0 0 1 1.1-3.3 8.1 8.1 0 0 1 3.2-2.1 9.8 9.8 0 0 1-3.6-8c0-3.3.9-5.8 2.7-7.6a9.7 9.7 0 0 1 7.4-2.8 9.7 9.7 0 0 1 4.5 1.1 6.7 6.7 0 0 0 2.8-2.4 7.6 7.6 0 0 0 1-3h4.3a8.3 8.3 0 0 1-1.4 4.8 6.4 6.4 0 0 1-3.8 2.6 10.4 10.4 0 0 1 2.8 7.3 10.5 10.5 0 0 1-2.7 7.6 9.8 9.8 0 0 1-7.2 2.8H24a3.2 3.2 0 0 0-2 .8 2.8 2.8 0 0 0-.8 2 2.7 2.7 0 0 0 .8 1.9 2.8 2.8 0 0 0 2 .9h8.9a7.4 7.4 0 0 1 5.3 2 7.5 7.5 0 0 1 2 5.2 8.8 8.8 0 0 1-2.4 6.3 9.1 9.1 0 0 1-6.7 2.5h-8.8a7.3 7.3 0 0 1-5.6-2.1zM31.6 55a3.8 3.8 0 0 0 3.7-3.7 3.5 3.5 0 0 0-1-2.6 3.7 3.7 0 0 0-2.7-1h-8.5a3.7 3.7 0 0 0-2.7 1 3.9 3.9 0 0 0-.9 2.6 3.4 3.4 0 0 0 3.6 3.7zm-.7-23.1a7.3 7.3 0 0 0 1.4-4.7 7.4 7.4 0 0 0-1.4-4.8 4.7 4.7 0 0 0-3.9-1.6 4.8 4.8 0 0 0-3.9 1.7 7.3 7.3 0 0 0-1.4 4.7 7.4 7.4 0 0 0 1.4 4.8 4.7 4.7 0 0 0 3.9 1.6 4.5 4.5 0 0 0 3.9-1.7zm18.5 7.2h-6.8v-3.7h6.8V26h3.7v9.4h6.8v3.7h-6.8v9.4h-3.7z"/></symbol><symbol id="twitter-icon" viewBox="0 0 72 72"><path fill="#bd9c42" d="M5 4.8h61.9v61.9H5z"/><path fill="#fff" d="M33.2 31.9h-2.7v-4.3h2.7v-5a8.5 8.5 0 0 1 1.5-5.1 5.3 5.3 0 0 1 4.6-2 11.4 11.4 0 0 1 4.1.7v3.4h-2.6c-1.8 0-2.7.9-2.7 2.8v5.2h5.3v4.3h-5.3v26.6h-4.9z"/><path fill="#bd9c42" d="M5 4.4h61.9v61.9H5z"/><path fill="#fff" d="M34.8 56.7a9 9 0 0 1-1.3-5.1V31.5h-2.7v-4.3h2.7l1-8.6h3.8v8.6h4.2v4.3h-4.2v20.2c0 1.9.9 2.9 2.8 2.9h1.4v3.3l-1.7.6a5.5 5.5 0 0 1-1.8.2c-2 0-3.4-.6-4.2-2z"/></symbol></svg>