<svg xmlns="http://www.w3.org/2000/svg" width="1.3in" height="1.3in" viewBox="0 0 93.6 93.6"><ellipse cx="74.6" cy="54.7" fill="#e6e6e5" rx="16.7" ry="13.7"/><path fill="none" stroke="#b2b3b3" stroke-miterlimit="10" stroke-width="4" d="M47.9 5.4A27.9 27.9 0 0 0 38 3.1c-8.2 1.5-17.6 12.8-17.6 12.8m42.2-2.1c4.4 2.2 8.1 7.3 8.1 7.3-1.8 9.8-14.8 18.2-14.8 18.2"/><ellipse cx="52.1" cy="7.7" fill="red" rx="2" ry="3.3" transform="rotate(-68.7 52.067 7.678)"/><ellipse cx="58.6" cy="11.3" fill="red" rx="2" ry="3.2" transform="rotate(-69.4 58.614 11.315)"/><ellipse cx="75.6" cy="52.5" fill="#989898" stroke="red" stroke-miterlimit="10" stroke-width="2" rx="7.3" ry="6"/><path fill="#b2b3b3" d="M74.2 66l-5.5-1a2.2 2.2 0 0 1-2-2.5 2.7 2.7 0 0 1 3.1-1.6l5.5 1c1.4.3 2.3 1.4 2 2.5a2.6 2.6 0 0 1-3.1 1.6z"/><path fill="none" stroke="red" stroke-linecap="round" stroke-miterlimit="10" stroke-width="10" d="M17.2 21.6c-23.8 21.3-1.5 43 33.7 21.5"/><path fill="none" stroke="red" stroke-miterlimit="10" stroke-width="10" d="M13.1 51.3C-5.4 82.5 32 87.1 32 87.1c20.1 2.8 34-8.1 36.6-17.6"/></svg>